<?xml version="1.0" standalone="no"?>
<!DOCTYPE svg PUBLIC "-//W3C//DTD SVG 20010904//EN" "http://www.w3.org/TR/2001/REC-SVG-20010904/DTD/svg10.dtd">
<svg xmlns="http://www.w3.org/2000/svg" version="1.0" width="2160.000000pt" height="2160.000000pt" viewBox="0 0 2160.000000 2160.000000" preserveAspectRatio="xMidYMid meet">
<metadata>
Created by potrace 1.16, written by Peter Selinger 2001-2019
<meta name="Producer" content="Online-Convert"/></metadata>
<g transform="translate(0.000000,2160.000000) scale(0.100000,-0.100000)" fill="#000000" stroke="none">
<path d="M11465 19653 c-141 -8 -578 -55 -675 -73 -970 -182 -1859 -679 -2503 -1400 -656 -735 -1038 -1619 -1129 -2615 -8 -83 -12 -1011 -15 -2987 l-4 -2867 21 -21 c20 -20 27 -20 1105 -20 l1084 0 4 2723 c2 2080 6 2741 15 2802 39 250 83 421 157 606 202 502 619 951 1113 1199 324 163 662 240 1048 240 368 0 674 -70 999 -230 671 -328 1114 -903 1268 -1645 21 -100 21 -108 27 -3585 6 -3096 8 -3494 22 -3570 70 -384 198 -703 403 -1010 118 -177 199 -275 355 -430 386 -386 877 -640 1415 -736 1215 -215 2412 420 2915 1546 116 259 198 563 219 815 12 130 16 3971 5 4038 l-7 37 -1038 0 c-572 0 -1040 -1 -1041 -2 -2 -2 -5 -923 -8 -2048 l-5 -2045 -30 -54 c-61 -111 -224 -232 -370 -277 -93 -28 -269 -26 -360 5 -181 61 -310 173 -366 316 l-23 60 3 3340 c1 2124 -2 3426 -8 3575 -28 659 -174 1237 -456 1815 -627 1280 -1833 2185 -3245 2434 -201 35 -681 77 -805 69 -16 -1 -57 -3 -90 -5z"/>
<path d="M10518 12543 c-15 -4 -16 -129 -20 -1676 l-3 -1672 -40 -90 c-153 -349 -491 -614 -865 -680 -65 -11 -171 -15 -447 -15 l-361 0 -7 -92 c-3 -51 -5 -569 -3 -1151 3 -927 5 -1059 18 -1068 10 -6 244 -8 645 -6 l630 3 140 27 c583 115 1068 357 1513 756 463 416 818 1043 938 1656 61 314 58 191 61 2175 3 1707 3 1816 -14 1827 -13 10 -243 13 -1092 12 -592 -1 -1083 -3 -1093 -6z"/>
<path d="M3760 10896 c0 -1026 -4 -1663 -10 -1695 -14 -73 -91 -224 -166 -324 -185 -246 -468 -415 -768 -456 -43 -6 -221 -11 -395 -11 -175 0 -333 -3 -350 -6 l-31 -6 0 -1143 c0 -971 2 -1144 14 -1154 11 -9 175 -11 653 -9 l638 4 130 26 c871 177 1582 662 2038 1388 235 374 380 771 449 1230 22 144 22 156 25 1950 2 993 1 1815 -2 1828 l-5 22 -1110 0 -1110 0 0 -1644z"/>
<path d="M2007 5713 c-4 -3 -7 -636 -7 -1405 l0 -1398 6125 0 6125 0 0 1405 0 1405 -6118 0 c-3365 0 -6122 -3 -6125 -7z m1427 -592 c44 -12 103 -32 132 -45 60 -28 145 -102 180 -158 30 -46 74 -176 74 -216 l0 -29 -202 -11 c-276 -16 -255 -18 -263 21 -12 56 -51 111 -97 137 -36 20 -57 25 -123 25 -115 0 -169 -37 -167 -115 2 -62 44 -85 237 -130 177 -41 362 -101 428 -139 163 -93 239 -219 240 -396 0 -105 -24 -190 -79 -273 -121 -185 -305 -262 -624 -262 -231 0 -397 38 -503 116 -62 45 -140 152 -171 235 -24 65 -52 186 -45 193 3 3 104 10 423 29 l39 2 17 -62 c33 -121 108 -187 227 -199 166 -18 285 96 224 212 -32 59 -88 86 -289 139 -93 24 -194 54 -224 66 -168 66 -269 147 -322 258 -28 60 -31 75 -31 166 0 92 3 106 32 168 76 161 225 254 456 287 104 15 341 4 431 -19z m1930 -774 c159 -424 291 -778 293 -784 4 -10 -50 -13 -251 -13 -197 0 -258 3 -261 13 -2 6 -20 65 -40 130 l-36 117 -271 -2 -271 -3 -37 -125 -36 -125 -247 -3 c-196 -2 -247 0 -247 11 0 7 128 354 285 772 157 418 287 766 290 773 3 9 67 12 272 12 l268 0 289 -773z m936 503 l0 -270 260 0 260 0 0 270 0 270 245 0 245 0 0 -785 0 -785 -245 0 -245 0 0 315 0 315 -260 0 -260 0 0 -315 0 -315 -245 0 -245 0 0 785 0 785 245 0 245 0 0 -270z m1812 -247 c3 -502 4 -519 24 -563 42 -91 125 -140 236 -140 78 0 134 19 182 61 83 73 81 55 84 642 l3 517 242 -2 242 -3 0 -515 c0 -578 -2 -601 -72 -743 -48 -96 -162 -211 -253 -255 -122 -59 -171 -67 -415 -67 -251 1 -325 13 -440 69 -51 25 -90 55 -141 108 -89 92 -116 139 -151 258 l-27 95 -4 528 -3 527 245 0 245 0 3 -517z m1818 -68 l0 -585 373 -2 372 -3 3 -197 2 -198 -620 0 -620 0 0 785 0 785 245 0 245 0 0 -585z m2215 -186 c160 -424 291 -777 293 -785 3 -12 -38 -14 -252 -14 l-255 0 -31 103 c-17 56 -35 113 -39 127 l-8 25 -271 3 -271 2 -26 -87 c-14 -49 -32 -106 -39 -128 l-13 -40 -246 -3 c-168 -1 -247 1 -247 8 0 8 477 1286 577 1546 4 11 55 14 272 14 l266 0 290 -771z m1655 576 l0 -195 -245 0 -245 0 0 -590 0 -590 -245 0 -245 0 0 590 0 590 -245 0 -245 0 0 195 0 195 735 0 735 0 0 -195z"/>
<path d="M4796 4680 c-8 -23 -156 -509 -156 -515 0 -3 72 -5 160 -5 121 0 160 3 160 13 -1 31 -159 520 -164 507z"/>
<path d="M11547 4580 c-84 -271 -126 -414 -123 -417 2 -2 75 -2 163 -1 l160 3 -78 253 c-42 138 -79 258 -82 265 -2 6 -20 -40 -40 -103z"/>
<path d="M14950 5327 c0 -149 3 -187 16 -205 15 -22 17 -22 289 -22 270 0 274 0 299 -22 25 -23 52 -99 166 -458 28 -91 60 -187 71 -214 10 -27 19 -54 19 -60 0 -6 11 -40 25 -76 103 -273 147 -418 178 -580 17 -91 20 -154 22 -478 l2 -372 -26 -6 c-37 -7 -72 -26 -85 -46 -15 -24 17 -56 72 -70 77 -19 80 -86 7 -142 -81 -61 -115 -120 -115 -195 0 -129 92 -220 223 -221 66 0 120 19 160 58 45 43 60 80 60 152 0 97 -22 137 -122 221 -24 21 -31 35 -31 62 0 71 -67 67 1023 67 l978 0 25 -26 c33 -32 26 -68 -19 -106 -75 -65 -104 -99 -115 -136 -25 -84 -8 -168 46 -225 31 -33 79 -60 91 -52 5 3 11 0 13 -7 8 -23 110 -15 164 13 156 80 165 299 16 389 -40 25 -71 84 -56 108 16 27 74 51 131 54 l53 3 0 72 0 73 -1042 1 c-574 0 -1077 4 -1118 7 l-75 7 -6 55 c-3 30 -6 187 -5 347 l1 293 25 24 25 25 1120 2 c616 1 1145 5 1175 8 52 6 55 7 58 36 24 254 41 492 45 622 3 90 8 167 11 171 3 5 7 68 8 139 2 72 6 129 11 126 4 -2 7 35 7 84 0 48 3 124 6 169 l7 81 -69 6 c-38 4 -642 7 -1342 7 l-1273 0 -51 26 c-33 17 -107 82 -217 190 -92 91 -181 174 -197 185 -27 18 -49 19 -356 19 l-328 -1 0 -182z"/>
<path d="M2333 2412 c-77 -28 -129 -66 -168 -125 -139 -210 -117 -555 46 -701 142 -129 357 -123 514 16 l35 30 0 169 0 169 -155 0 -155 0 0 -55 0 -55 105 0 105 0 0 -86 c0 -97 1 -96 -84 -140 -140 -74 -297 -20 -363 123 -50 107 -48 311 3 419 64 135 208 188 335 123 46 -23 74 -58 96 -119 l17 -47 43 14 c48 17 48 11 11 110 -21 58 -87 125 -146 150 -59 24 -178 27 -239 5z"/>
<path d="M8771 2413 c-60 -31 -74 -62 -79 -163 l-4 -90 -39 0 c-39 0 -39 0 -39 -40 l0 -40 40 0 40 0 0 -285 0 -285 45 0 45 0 0 285 0 285 55 0 55 0 0 40 0 40 -55 0 -55 0 0 60 c0 52 4 65 26 87 21 21 32 25 64 20 l39 -5 7 44 c3 25 4 47 1 50 -3 3 -29 7 -58 10 -40 4 -63 1 -88 -13z"/>
<path d="M9530 1960 l0 -450 44 0 44 0 4 228 c3 200 5 232 22 266 53 107 201 101 226 -9 5 -22 10 -140 10 -262 l0 -223 46 0 46 0 -4 263 c-3 226 -6 268 -22 305 -45 106 -181 133 -281 56 l-45 -34 0 155 0 155 -45 0 -45 0 0 -450z"/>
<path d="M10990 1960 l0 -450 45 0 45 0 2 183 3 182 150 5 c168 6 201 16 252 73 47 53 66 123 61 222 -3 66 -9 91 -31 128 -55 94 -97 107 -338 107 l-189 0 0 -450z m397 330 c60 -38 85 -170 43 -237 -34 -57 -69 -68 -215 -68 l-130 0 -3 150 c-1 82 0 156 3 163 7 20 269 12 302 -8z"/>
<path d="M13630 1960 l0 -450 40 0 c39 0 40 0 40 37 l0 37 36 -37 c108 -111 278 -38 331 141 22 75 22 228 0 303 -51 172 -208 242 -318 142 l-39 -35 0 156 0 156 -45 0 -45 0 0 -450z m276 114 c21 -10 45 -35 62 -63 25 -43 27 -53 27 -171 0 -115 -2 -129 -25 -170 -64 -114 -165 -114 -230 1 -23 40 -25 55 -25 159 0 103 3 120 26 165 26 52 77 95 111 95 11 0 35 -7 54 -16z"/>
<path d="M7573 2360 l-43 -32 0 -84 0 -84 -35 0 c-34 0 -35 -1 -35 -40 0 -39 1 -40 35 -40 l35 0 0 -242 c0 -211 2 -248 18 -278 22 -45 55 -61 117 -58 55 3 62 13 51 73 -6 28 -10 32 -32 27 -15 -3 -32 2 -44 13 -19 17 -20 32 -20 242 l0 223 45 0 45 0 0 40 0 40 -45 0 -44 0 -3 115 -3 116 -42 -31z"/>
<path d="M9303 2357 l-43 -31 0 -83 0 -83 -35 0 c-34 0 -35 -1 -35 -40 0 -39 1 -40 34 -40 l34 0 4 -252 c2 -182 7 -259 16 -275 17 -31 63 -53 111 -53 61 0 67 5 63 55 -4 44 -5 45 -37 45 -61 0 -65 16 -65 262 l0 218 45 0 45 0 0 40 0 40 -45 0 -44 0 -3 114 -3 114 -42 -31z"/>
<path d="M3038 2166 c-121 -43 -178 -150 -178 -330 0 -147 36 -241 113 -297 82 -60 181 -62 265 -6 87 59 129 180 120 348 -5 74 -11 101 -37 154 -59 119 -172 171 -283 131z m142 -104 c64 -48 97 -146 87 -264 -10 -115 -62 -197 -137 -213 -40 -9 -108 24 -137 67 -58 87 -57 279 1 369 45 67 126 85 186 41z"/>
<path d="M4136 2165 c-118 -42 -176 -154 -176 -336 0 -151 51 -263 139 -308 140 -72 298 -2 342 151 9 31 7 32 -49 42 -30 5 -33 3 -53 -39 -74 -157 -256 -100 -284 88 l-7 47 201 0 201 0 0 59 c0 212 -151 354 -314 296z m117 -86 c57 -29 83 -68 101 -151 l6 -28 -151 0 -152 0 6 41 c13 101 116 176 190 138z"/>
<path d="M4721 2166 c-13 -7 -34 -31 -47 -52 l-24 -39 0 43 0 42 -40 0 -40 0 0 -325 0 -325 45 0 45 0 0 213 c0 226 7 275 45 313 25 25 72 32 104 14 15 -8 20 -3 30 31 7 23 15 47 17 54 3 7 -11 19 -36 29 -48 19 -67 20 -99 2z"/>
<path d="M5102 2169 c-18 -5 -51 -28 -72 -51 l-40 -40 0 41 0 41 -40 0 -40 0 0 -325 0 -325 44 0 44 0 4 228 c4 254 11 286 70 322 47 28 112 27 143 -4 38 -38 45 -86 45 -323 l0 -223 46 0 45 0 -3 263 c-3 242 -5 265 -24 308 -13 28 -35 54 -57 68 -41 25 -118 35 -165 20z"/>
<path d="M5665 2161 c-23 -10 -53 -33 -68 -50 l-27 -33 0 41 0 41 -40 0 -40 0 0 -325 0 -325 44 0 44 0 4 233 c4 252 8 272 64 316 29 23 83 28 116 10 42 -22 48 -63 48 -319 l0 -240 45 0 45 0 0 218 c0 119 5 234 10 254 14 50 70 98 116 98 95 0 104 -28 104 -330 l0 -240 46 0 45 0 -3 273 c-3 262 -4 274 -26 315 -25 48 -83 82 -137 82 -46 0 -109 -34 -141 -75 l-28 -37 -18 37 c-13 25 -33 43 -61 56 -53 23 -91 24 -142 0z"/>
<path d="M6493 2164 c-55 -20 -115 -87 -143 -160 -30 -78 -34 -240 -7 -328 47 -153 209 -227 347 -156 46 24 74 55 99 110 29 64 27 80 -8 80 -16 0 -36 3 -44 6 -10 4 -18 -5 -26 -29 -6 -18 -24 -45 -39 -60 -99 -94 -230 -24 -249 134 l-6 49 203 0 203 0 -6 73 c-11 130 -55 217 -131 262 -56 33 -135 41 -193 19z m157 -102 c31 -23 70 -97 70 -134 l0 -28 -150 0 -151 0 7 38 c22 124 137 188 224 124z"/>
<path d="M7122 2169 c-18 -5 -51 -28 -72 -51 l-40 -40 0 41 0 41 -40 0 -40 0 0 -325 0 -325 44 0 44 0 4 228 c3 185 7 234 20 264 21 48 70 78 126 78 36 0 49 -6 72 -30 36 -39 40 -67 40 -322 l0 -218 46 0 45 0 -3 263 c-3 242 -5 265 -24 308 -13 28 -35 54 -57 68 -41 25 -118 35 -165 20z"/>
<path d="M8224 2164 c-52 -19 -111 -75 -135 -128 -43 -98 -48 -248 -13 -365 23 -79 101 -154 176 -171 86 -20 149 -1 213 64 65 65 88 137 89 276 0 132 -22 199 -89 266 -71 71 -150 90 -241 58z m156 -102 c51 -38 74 -98 78 -202 6 -145 -25 -226 -100 -263 -75 -37 -168 16 -196 110 -15 49 -16 204 -2 255 30 106 142 157 220 100z"/>
<path d="M10258 2166 c-129 -46 -185 -160 -176 -363 6 -150 49 -237 137 -282 131 -67 279 -10 331 127 22 57 23 56 -37 66 -31 5 -34 3 -57 -43 -27 -52 -54 -75 -103 -85 -70 -16 -153 54 -172 144 -19 87 -35 80 189 80 l200 0 0 59 c0 209 -152 354 -312 297z m115 -87 c57 -29 83 -68 101 -151 l6 -28 -150 0 -150 0 0 28 c1 102 115 191 193 151z"/>
<path d="M12435 2168 c-16 -6 -47 -27 -67 -46 l-38 -36 0 37 0 37 -45 0 -45 0 0 -325 0 -325 50 0 50 0 0 228 c0 201 3 232 19 269 12 25 32 48 50 57 39 21 100 20 130 0 46 -32 51 -66 51 -319 l0 -235 45 0 45 0 0 248 c0 281 -8 332 -60 376 -50 42 -123 55 -185 34z"/>
<path d="M13187 2166 c-28 -8 -62 -27 -82 -46 -36 -35 -74 -126 -59 -140 5 -4 25 -10 45 -13 34 -5 37 -3 43 24 14 69 99 113 175 90 51 -15 78 -47 86 -104 7 -46 7 -47 -26 -61 -19 -7 -65 -19 -104 -25 -109 -18 -161 -39 -194 -77 -76 -85 -62 -231 28 -291 69 -47 160 -39 250 21 54 36 55 36 65 -6 6 -26 10 -28 52 -28 40 0 45 2 38 18 -4 9 -10 132 -14 272 -4 182 -10 262 -19 280 -46 87 -156 120 -284 86z m209 -393 c-10 -82 -22 -116 -54 -146 -90 -85 -222 -52 -222 56 0 60 32 92 108 107 31 7 77 18 102 25 73 22 73 22 66 -42z"/>
<path d="M3420 2153 c0 -4 45 -150 99 -323 l99 -315 43 -3 44 -3 38 123 c21 68 66 214 101 326 l64 202 -47 0 -47 0 -44 -147 c-24 -82 -58 -197 -76 -258 -18 -60 -35 -103 -37 -95 -3 8 -36 123 -75 255 l-69 240 -46 3 c-26 2 -47 -1 -47 -5z"/>
<path d="M11662 1902 c3 -249 4 -259 28 -307 58 -117 195 -137 290 -41 l40 40 0 -42 0 -42 40 0 40 0 0 325 0 325 -44 0 -44 0 -4 -232 c-3 -259 -8 -280 -71 -318 -51 -32 -103 -26 -143 14 l-34 34 0 251 0 251 -51 0 -51 0 4 -258z"/>
<path d="M12820 1772 c0 -436 0 -438 -66 -430 -33 4 -34 3 -40 -40 -3 -23 -4 -45 -1 -48 15 -16 87 -15 120 1 71 33 72 39 75 498 l3 407 -46 0 -45 0 0 -388z"/>
</g>
</svg>
